<svg xmlns="http://www.w3.org/2000/svg" width="24" height="24" viewBox="0 0 24 24" fill="currentColor">
  <!-- Left bracket < -->
  <path d="M8 1 L1 8 Q0.5 8.5 0.5 9 Q0.5 9.5 1 10 Q1 10.5 1 11 L8 18 Q8.5 18.5 9.2 18.2 Q10 17.9 10 17 L10 16 L4 11.5 L10 7 L10 6 Q10 5.1 9.2 4.8 Q8.5 4.5 8 5 Z"/>
  <!-- Right bracket > -->
  <path d="M16 1 L23 8 Q23.5 8.5 23.5 9 Q23.5 9.5 23 10 Q23 10.5 23 11 L16 18 Q15.5 18.5 14.8 18.2 Q14 17.9 14 17 L14 16 L20 11.5 L14 7 L14 6 Q14 5.1 14.8 4.8 Q15.5 4.5 16 5 Z"/>
  <!-- Central node -->
  <circle cx="12" cy="11" r="2.5"/>
  <!-- Top connector -->
  <circle cx="12" cy="5" r="1.5"/>
  <path d="M12 6.5 L12 8.5" stroke="currentColor" stroke-width="1.4" stroke-linecap="round"/>
  <!-- Bottom-left connector -->
  <circle cx="8.5" cy="16" r="1.5"/>
  <path d="M9.5 14.8 L10.8 13.5" stroke="currentColor" stroke-width="1.4" stroke-linecap="round"/>
  <!-- Bottom-right connector -->
  <circle cx="15.5" cy="16" r="1.5"/>
  <path d="M14.5 14.8 L13.2 13.5" stroke="currentColor" stroke-width="1.4" stroke-linecap="round"/>
</svg>
